# xmcd CD database file
#
# Track frame offsets:
#	150
#	22560
#	40921
#	71937
#	87752
#	110708
#	122471
#	143958
#	158241
#	182907
#	201773
#	221216
#	241119
#	254540
#
# Disc length: 3652 seconds
#
# Revision: 0
# Processed by: cddbd v1.5.2PL0 Copyright (c) Steve Scherf et al.
# Submitted via: CDex 1.70beta2
#
DISCID=c70e420e
DTITLE=Jump Daddy's - Jump to it!
DYEAR=2007
DGENRE=Blues
TTITLE0=Too late
TTITLE1=You Win
TTITLE2=Hit the road Jack
TTITLE3=Have a good time
TTITLE4=Deep pockets
TTITLE5=Caravan
TTITLE6=It isn't fair
TTITLE7=Greasy kid stuff
TTITLE8=Rock this house
TTITLE9=Next ex-wife
TTITLE10=Boogie woogie Baby
TTITLE11=Red Headed Woman
TTITLE12=Caladonia
TTITLE13=Working man's funk
EXTD=YEAR: 2007
EXTT0=
EXTT1=
EXTT2=
EXTT3=
EXTT4=
EXTT5=
EXTT6=
EXTT7=
EXTT8=
EXTT9=
EXTT10=
EXTT11=
EXTT12=
EXTT13=
PLAYORDER=
